<?xml version="1.0" encoding="utf-8"?>
<!-- Generator: Adobe Illustrator 22.0.1, SVG Export Plug-In . SVG Version: 6.00 Build 0)  -->
<svg version="1.1" id="Capa_1" xmlns="http://www.w3.org/2000/svg" xmlns:xlink="http://www.w3.org/1999/xlink" x="0px" y="0px"
	 viewBox="0 0 36 36" style="enable-background:new 0 0 36 36;" xml:space="preserve">
<style type="text/css">
	.st0{fill:#91969D;}
</style>
<g>
	<path class="st0" d="M10.2,14.7c1.9,0,3.4-1.5,3.4-3.4c0-1.9-1.5-3.4-3.4-3.4c-1.9,0-3.4,1.5-3.4,3.4C6.8,13.1,8.3,14.7,10.2,14.7
		L10.2,14.7z M10.2,9c1.3,0,2.3,1,2.3,2.3c0,1.3-1,2.3-2.3,2.3s-2.3-1-2.3-2.3C7.9,10,8.9,9,10.2,9L10.2,9z"/>
	<path class="st0" d="M5.7,26.6c0.1,0,0.3,0,0.4-0.1l7.9-6.9l6,6c0.2,0.2,0.6,0.2,0.8,0c0.2-0.2,0.2-0.6,0-0.8L18,21.9l5.4-5.9
		l6.6,6c0.2,0.2,0.6,0.2,0.8,0c0.2-0.2,0.2-0.6,0-0.8l-7-6.4c-0.1-0.1-0.3-0.2-0.4-0.2c-0.2,0-0.3,0.1-0.4,0.2l-5.7,6.3l-2.8-2.8
		c-0.2-0.2-0.6-0.2-0.8,0l-8.3,7.2c-0.2,0.2-0.3,0.6-0.1,0.8C5.4,26.5,5.5,26.6,5.7,26.6L5.7,26.6z M5.7,26.1"/>
	<path class="st0" d="M31.6,5.7c0.4,0,0.7,0.3,0.7,0.8v23c0,0.4-0.3,0.8-0.7,0.8H4.4c-0.4,0-0.7-0.3-0.7-0.8v-23
		c0-0.4,0.3-0.8,0.7-0.8H31.6 M31.6,4.5H4.4c-1.1,0-1.9,0.9-1.9,2v23c0,1.1,0.9,2,1.9,2h27.1c1.1,0,1.9-0.9,1.9-2v-23
		C33.5,5.4,32.6,4.5,31.6,4.5L31.6,4.5z"/>
</g>
</svg>
